<?xml version="1.0" encoding="UTF-8" standalone="no"?>
<svg
   width="16px"
   height="16px"
   viewBox="0 0 16 16"
   version="1.1"
   id="svg12"
   sodipodi:docname="minios_icon.svg"
   inkscape:version="1.2 (dc2aedaf03, 2022-05-15)"
   xmlns:inkscape="http://www.inkscape.org/namespaces/inkscape"
   xmlns:sodipodi="http://sodipodi.sourceforge.net/DTD/sodipodi-0.dtd"
   xmlns="http://www.w3.org/2000/svg"
   xmlns:svg="http://www.w3.org/2000/svg">
  <sodipodi:namedview
     id="namedview14"
     pagecolor="#ffffff"
     bordercolor="#000000"
     borderopacity="0.25"
     inkscape:showpageshadow="2"
     inkscape:pageopacity="0.0"
     inkscape:pagecheckerboard="0"
     inkscape:deskcolor="#d1d1d1"
     showgrid="false"
     inkscape:zoom="15.59375"
     inkscape:cx="11.126252"
     inkscape:cy="7.0861723"
     inkscape:window-width="2560"
     inkscape:window-height="1266"
     inkscape:window-x="-8"
     inkscape:window-y="-8"
     inkscape:window-maximized="1"
     inkscape:current-layer="svg12" />
  <defs
     id="defs7">
    <linearGradient
       x1="50%"
       y1="0%"
       x2="50%"
       y2="100%"
       id="linearGradient-1">
      <stop
         stop-color="#38AEEB"
         offset="0%"
         id="stop2" />
      <stop
         stop-color="#279AD1"
         offset="100%"
         id="stop4" />
    </linearGradient>
  </defs>
  <g
     id="g11647"
     transform="translate(-223.52452,-85.818674)"
     inkscape:label="Layer1">
		
		<path
   id="_1"
   d="m 229.79354,87.102066 c -3.55026,0.544627 -6.26902,3.612417 -6.26902,7.315145 0,4.087623 3.31343,7.401469 7.40094,7.401469 3.73149,0 6.81792,-2.761539 7.32721,-6.352454 h 0.81431 c 0.24052,0 0.43526,-0.195059 0.4325,-0.403019 0.0151,-0.188915 0.024,-0.416227 0.024,-0.645996 0,-4.748671 -3.84976,-8.598537 -8.59829,-8.598537 -0.25986,0 -0.51696,0.01167 -0.73383,0.03103 -0.20334,-0.0031 -0.39808,0.191986 -0.39808,0.4322 m 2.70125,6.920422 c -0.24023,0 -0.43527,-0.195059 -0.43527,-0.435272 l -0.001,-4.561292 c 2.55042,0.46169 4.56823,2.45712 5.06308,4.996564 z m -2.70095,1.21489 c 0,0.579339 0.46966,1.049015 1.04899,1.049015 h 5.09071 c -0.48349,2.322268 -2.54183,4.066427 -5.00778,4.066427 -2.82535,0 -5.1153,-2.290322 -5.1153,-5.115442 0,-2.436231 1.70295,-4.474974 3.98338,-4.990112 m 0,4.990112 v -4.989809 m 0,-2.32534 V 86.2819 m 0,8.135312 v -4.989805 m 0,-2.32534 V 86.2819 m 0,0.820167 c -3.55026,0.544627 -6.26902,3.612417 -6.26902,7.315145 0,4.087623 3.31343,7.401468 7.40094,7.401468 3.73149,0 6.81792,-2.761538 7.32721,-6.352453 h 0.81431 c 0.24052,0 0.43526,-0.195059 0.4325,-0.403019 0.0151,-0.188915 0.024,-0.416227 0.024,-0.645996 0,-4.748671 -3.84976,-8.598537 -8.59829,-8.598537 -0.25986,0 -0.51696,0.01167 -0.73383,0.03103 -0.20334,-0.0031 -0.39808,0.191986 -0.39808,0.4322 v 0.820167 z m 2.70095,6.100255 c -0.24023,0 -0.43527,-0.195059 -0.43527,-0.435272 l -0.001,-4.561292 c 2.55042,0.46169 4.56793,2.45712 5.06308,4.996564 z m -2.70095,1.21489 c 0,0.579339 0.46966,1.049015 1.04899,1.049015 h 5.09071 c -0.48349,2.322268 -2.54183,4.066427 -5.00778,4.066427 -2.82535,0 -5.1153,-2.290322 -5.1153,-5.115442 0,-2.436231 1.70295,-4.474974 3.98338,-4.990112 z m 0,0 v -4.989805 z m 0,-7.315145 V 86.2819 Z m 0,7.315145 v -4.989805 z m 0,-7.315145 V 86.2819 Z"
   style="stroke-width:0.307173;fill:#808080;fill-opacity:1"
   inkscape:label="Path1" />

	</g>
</svg>
